<svg xmlns="http://www.w3.org/2000/svg"
shape-rendering="geometricPrecision"
width="4000" height="4000" viewBox="0 0 726 726"><rect width="100%" height="100%" fill="#DDECFC" />
  <metadata>null</metadata>

<path d="
M 32.956 325.109
C 34.01 301.767 50.622 281.019 73.538 275.459
C 80.292 273.82 87.098 273.856 94.001 273.877
C 100.502 273.898 107.004 273.9 113.505 273.912
C 123.339 273.931 133.173 274.013 143.007 274.031
C 149.941 274.043 157.102 273.633 163.92 275.132
C 185.273 279.828 203.67 294.309 211.112 315.173
C 213.707 322.45 214.683 330.617 214.34 338.316
C 213.778 350.908 209.709 362.803 202.235 372.987
C 197.815 379.01 192.201 384.101 187.17 389.595
C 175.268 402.589 163.3 415.538 151.483 428.611
C 145.217 435.542 139.056 442.623 132.691 449.454
C 130.328 451.991 126.69 454.207 123.195 452.242
C 120.212 450.565 120.031 447.549 120.042 444.491
C 120.055 440.826 120.096 437.162 120.094 433.497
C 120.089 423.703 120.083 413.908 120.086 404.114
C 120.088 396.646 119.996 389.071 113.914 383.737
C 103.023 374.187 87.588 378.887 74.483 376.837
C 49.772 372.97 31.841 349.811 32.956 325.109 Z
M 47.911 322.099
C 47.379 326.97 47.749 331.981 48.986 336.721
C 49.979 340.526 51.479 343.987 53.711 347.237
C 59.387 355.502 68.115 360.807 78.067 362.055
C 86.015 363.052 94.039 361.647 102.003 362.434
C 108.242 363.051 114.436 365.488 119.487 369.17
C 122.305 371.224 124.754 373.489 126.959 376.19
C 135.825 387.057 134.829 400.298 134.837 413.499
C 134.839 416.88 134.366 420.734 134.897 424.064
C 135.958 423.449 136.84 421.832 137.7 420.912
C 140.173 418.266 142.67 415.649 145.088 412.952
C 152.384 404.81 160.082 397.017 167.487 388.974
C 171.698 384.399 175.888 379.792 180.161 375.276
C 186.553 368.519 192.905 361.91 196.327 353.076
C 204.045 333.148 197.782 309.957 179.937 297.738
C 174.731 294.173 168.947 291.886 162.875 290.266
C 156.938 288.681 150.556 289.134 144.476 289.165
C 135.318 289.212 126.16 289.209 117.002 289.189
C 110.338 289.175 103.671 289.198 97.008 289.108
C 91.35 289.032 85.614 288.62 79.984 289.377
C 72.136 290.432 64.495 294.357 58.911 299.916
C 56.346 302.469 54.232 305.416 52.46 308.565
C 50.034 312.878 48.957 317.329 47.911 322.099 Z"
opacity="1" fill="rgb(107,181,225)" fill-rule="evenodd" />
<path d="
M 235.46 419.109
C 236.484 412.065 237.986 405.743 242.738 400.156
C 251.819 389.479 271.338 386.817 280.929 398.355
C 281.104 398.139 280.81 396.84 280.789 396.547
C 280.686 395.109 280.752 393.664 280.706 392.224
C 284.288 391.826 288.026 391.957 291.633 391.925
C 292.431 391.918 294.777 391.565 295.237 392.216
C 294.545 403.716 295.161 415.475 295.184 427.001
C 295.194 432.334 295.165 437.667 295.169 443
C 295.171 445.356 294.914 447.884 295.169 450.218
C 293.472 449.897 291.433 450.183 289.693 450.154
C 287.02 450.11 284.065 449.659 281.425 450
C 280.284 449.177 280.874 445.268 280.606 443.842
C 278.315 446.091 275.972 448.029 272.978 449.291
C 261.028 454.329 246.493 448.827 239.843 437.979
C 236.45 432.445 234.968 425.564 235.46 419.109 Z
M 250.443 418.098
C 249.249 424.633 252.073 432.079 258.135 435.25
C 267.234 440.011 278.223 434.413 279.963 424.401
C 281.001 418.43 278.948 412.547 274.239 408.665
C 267.529 403.135 257.164 404.838 252.706 412.334
C 251.656 414.1 250.814 416.065 250.443 418.098 Z"
opacity="1" fill="rgb(11,76,103)" fill-rule="evenodd" />
<path d="
M 238.182 276.674
C 241.403 276.062 244.916 276.393 248.182 276.4
C 249.821 276.404 251.826 276.043 253.406 276.45
C 252.575 285.65 253.304 295.259 253.286 304.501
C 253.251 322.126 253.162 339.76 253.231 357.382
C 252.219 357.845 250.121 357.476 249.003 357.464
C 245.5 357.426 241.964 357.287 238.464 357.42
C 237.572 356.47 238.178 353.203 238.188 351.909
C 238.226 346.94 238.228 341.971 238.226 337.002
C 238.221 316.894 238.086 296.78 238.182 276.674 Z"
opacity="1" fill="rgb(11,75,103)" fill-rule="evenodd" />
<path d="
M 264.31 298.877
C 268.905 298.878 273.565 298.654 278.154 298.93
C 278.796 300.271 278.129 302.331 278.24 303.769
C 278.306 303.829 280.088 301.964 280.408 301.719
C 281.858 300.614 283.47 299.7 285.166 299.033
C 290.368 296.988 296.76 297.299 302.005 299.011
C 303.508 299.501 304.887 300.275 306.206 301.136
C 316.823 308.063 315.639 321.974 315.634 333
C 315.632 335.833 315.627 338.666 315.623 341.5
C 315.619 345.069 315.622 348.637 315.585 352.205
C 315.569 353.81 315.978 355.88 315.42 357.411
C 310.61 357.366 305.558 357.141 300.781 357.584
C 300.898 347.895 300.778 338.194 300.757 328.503
C 300.747 323.648 301.288 318.492 297.881 314.536
C 292.705 308.525 282.603 311.186 279.78 318.101
C 278.052 322.331 278.756 327.68 278.752 332.156
C 278.747 337.771 278.755 343.386 278.763 349.001
C 278.766 351.762 278.526 354.657 278.823 357.401
C 274.057 357.516 269.277 357.308 264.515 357.445
C 263.688 356.616 264.072 354.636 264.069 353.494
C 264.063 349.997 264.091 346.5 264.105 343.003
C 264.143 333.335 264.219 323.668 264.235 314.001
C 264.244 309.096 263.616 303.724 264.31 298.877 Z"
opacity="1" fill="rgb(13,75,103)" fill-rule="evenodd" />
<path d="
M 301.468 417.603
C 302.104 413.906 302.707 410.387 304.362 406.969
C 309.839 395.661 322.076 390.261 334.218 391.242
C 341.577 391.837 348.734 395.269 353.789 400.652
C 354.934 401.871 357.739 404.59 357.719 406.375
C 353.187 408.581 348.742 411.44 344.428 414.047
C 343.418 413.328 342.691 411.635 341.813 410.679
C 339.937 408.636 337.546 406.96 334.889 406.117
C 333.079 405.544 331.21 405.473 329.332 405.621
C 314.231 406.81 310.879 429.135 324.352 435.391
C 326.366 436.326 328.681 436.729 330.895 436.708
C 333.382 436.685 335.97 436.158 338.174 434.988
C 340.95 433.514 343.01 431.358 344.638 428.694
C 345.593 428.548 347.328 429.819 348.166 430.297
C 351.333 432.104 354.465 434.227 357.758 435.78
C 356.776 438.002 354.899 440.138 353.26 441.909
C 343.019 452.969 324.681 453.959 312.724 445.236
C 304.13 438.968 300.314 427.972 301.468 417.603 Z"
opacity="1" fill="rgb(12,76,103)" fill-rule="evenodd" />
<path d="
M 319.309 298.77
C 321.675 298.707 324.035 298.672 326.404 298.654
C 326.795 298.651 328.212 298.876 328.431 298.539
C 328.403 293.725 328.825 288.765 328.412 283.973
C 331.887 283.216 335.991 283.776 339.544 283.792
C 340.633 283.797 342.462 283.417 343.412 283.927
C 343.049 288.628 343.013 293.752 343.385 298.454
C 347.853 298.118 352.453 298.582 356.933 298.601
C 357.323 302.802 356.953 307.069 356.902 311.285
C 353.939 311.354 350.967 311.285 348.002 311.303
C 346.594 311.312 344.777 311.079 343.509 311.727
C 343.027 319.437 343.429 327.276 343.413 335.003
C 343.407 337.907 342.74 341.702 345.342 343.707
C 348.31 345.993 353.83 344.331 357.208 343.94
C 357.92 348.026 357.38 352.985 357.272 357.136
C 352.608 357.372 347.952 358.126 343.265 357.822
C 341.309 357.695 339.453 357.355 337.585 356.759
C 328.916 353.994 328.568 345.682 328.589 337.999
C 328.605 332.014 328.602 326.028 328.629 320.044
C 328.641 317.438 329.298 313.873 328.556 311.378
C 325.587 311.172 322.405 311.048 319.447 311.39
C 318.622 307.431 319.535 302.814 319.309 298.77 Z"
opacity="1" fill="rgb(14,76,104)" fill-rule="evenodd" />
<path d="
M 360.44 324.6
C 361.722 317.064 364.128 309.889 370.159 304.741
C 384.258 292.704 407.434 296.662 415.516 313.687
C 418.427 319.817 418.623 326.839 417.845 333.455
C 414.334 334.263 409.814 333.507 406.19 333.556
C 395.856 333.695 385.347 332.884 375.049 333.464
C 374.356 336.292 378.429 340.524 380.457 342.061
C 388.066 347.826 397.866 344.546 403.434 337.786
C 404.388 337.427 405.984 338.561 406.875 339.05
C 409.825 340.668 413.133 341.815 415.91 343.715
C 415.386 346.509 412.407 349.462 410.314 351.219
C 403.448 356.983 394.367 359.024 385.554 358.103
C 375.421 357.044 366.174 350.286 362.394 340.786
C 360.374 335.707 359.915 330.006 360.44 324.6 Z
M 374.896 322.111
C 374.833 322.322 374.77 322.534 374.707 322.745
C 384.398 322.56 394.132 322.892 403.826 322.797
C 403.056 319.959 402.11 317.377 400.047 315.185
C 394.855 309.669 385.255 309.457 379.584 314.446
C 377.176 316.565 375.906 319.126 374.896 322.111 Z"
opacity="1" fill="rgb(13,76,104)" fill-rule="evenodd" />
<path d="
M 360.946 416.097
C 362.22 409.6 364.57 403.167 369.525 398.501
C 380.691 387.987 400.285 388.381 410.89 399.455
C 415.666 404.441 417.967 411.019 418.333 417.831
C 418.472 420.407 417.701 423.787 418.267 426.241
C 403.923 425.493 389.412 426.383 375.05 426.206
C 377.633 435 386.41 440.017 395.357 436.847
C 398.938 435.579 401.149 433.086 403.887 430.661
C 404.99 430.584 406.237 431.683 407.226 432.195
C 409.988 433.623 413.97 434.635 416.308 436.665
C 414.684 440.486 410.95 443.904 407.536 446.091
C 397.494 452.524 382.574 452.88 372.605 446.082
C 362.806 439.4 359.437 427.44 360.946 416.097 Z
M 374.997 415.128
C 374.946 415.326 374.895 415.524 374.844 415.722
C 384.463 415.319 394.219 416.387 403.821 415.683
C 404.053 414.424 402.973 412.56 402.438 411.455
C 400.29 407.025 396.465 404.388 391.568 403.866
C 383.496 403.005 377.649 407.926 374.997 415.128 Z"
opacity="1" fill="rgb(12,76,103)" fill-rule="evenodd" />
<path d="
M 425.202 298.763
C 428.628 298.891 432.078 298.781 435.509 298.811
C 436.36 298.819 438.743 298.426 439.313 299.017
C 439.379 301.004 439.241 303.074 439.426 305.044
C 440.097 304.779 440.393 303.923 440.89 303.405
C 441.874 302.38 442.976 301.508 444.133 300.689
C 447.317 298.436 451.2 297.91 455.007 297.825
C 456.291 297.796 457.735 297.559 458.987 297.874
C 458.565 302.931 458.561 308.196 458.534 313.274
C 457.42 313.834 455.037 313.234 453.76 313.257
C 450.518 313.317 447.258 313.889 444.627 315.902
C 440.16 319.321 439.94 324.588 439.863 329.739
C 439.726 338.951 439.708 348.191 439.798 357.403
C 435.061 357.82 430.192 357.36 425.438 357.45
C 424.717 356.713 425.142 354.528 425.142 353.503
C 425.142 349.837 425.111 346.171 425.109 342.504
C 425.102 327.958 424.724 313.295 425.202 298.763 Z"
opacity="1" fill="rgb(13,76,103)" fill-rule="evenodd" />
<path d="
M 441.815 449.532
C 449.845 430.156 456.983 410.367 465.295 391.111
C 466.861 391.019 471.166 390.234 472.347 391.262
C 479.992 410.894 488.028 430.423 495.269 450.212
C 492.915 449.892 489.74 450.834 487.52 449.997
C 485.709 445.59 484.51 440.818 482.345 436.569
C 481.189 435.616 477.509 436.284 475.999 436.284
C 470.833 436.284 465.666 436.323 460.5 436.381
C 458.82 436.399 455.873 435.892 454.428 436.799
C 452.402 441.063 450.983 445.673 449.191 450.041
C 446.727 450.495 444.102 450.034 441.604 450.256
C 441.674 450.015 441.745 449.773 441.815 449.532 Z
M 457.421 429.062
C 457.337 429.301 457.253 429.541 457.168 429.78
C 462.727 430.557 468.883 429.855 474.503 429.868
C 476.106 429.871 478.195 429.491 479.73 429.807
C 479.248 427.806 478.315 425.857 477.606 423.927
C 475.637 418.57 473.773 413.168 471.569 407.899
C 470.878 406.25 470.316 404.547 469.591 402.916
C 469.292 402.242 469.26 401.299 468.548 400.951
C 466.893 405.853 464.715 410.669 462.778 415.474
C 460.971 419.96 459.488 424.695 457.421 429.062 Z"
opacity="1" fill="rgb(16,77,105)" fill-rule="evenodd" />
<path d="
M 460.76 298.881
C 464.629 298.528 468.621 298.78 472.506 298.805
C 473.687 298.813 475.886 298.378 476.889 298.937
C 479.916 307.451 483.15 315.891 486.137 324.424
C 487.638 328.71 488.654 334.093 490.969 337.991
C 492.476 334.557 493.415 330.747 494.674 327.201
C 497.985 317.876 501.028 308.28 504.82 299.151
C 510.316 298.168 516.151 299.571 521.665 298.897
C 521.922 299.422 520.384 301.963 520.117 302.563
C 518.607 305.956 517.216 309.459 515.91 312.936
C 513.07 320.499 509.839 327.91 506.923 335.444
C 504.087 342.772 501.437 350.267 498.123 357.389
C 496.874 357.982 494.576 357.568 493.22 357.494
C 490.013 357.321 486.756 357.446 483.544 357.453
C 480.06 350.159 477.633 342.293 474.619 334.796
C 469.856 322.946 464.572 311.07 460.76 298.881 Z"
opacity="1" fill="rgb(13,76,104)" fill-rule="evenodd" />
<path d="
M 501.474 410.619
C 501.797 407.633 501.555 404.499 501.563 401.496
C 501.571 398.186 501.819 394.728 501.512 391.439
C 503.695 390.843 506.336 391.383 508.594 391.198
C 509.047 393.065 508.726 395.343 508.725 397.26
C 508.723 401.506 508.688 405.752 508.679 409.998
C 508.653 423.43 508.647 436.869 508.63 450.296
C 506.314 450.173 503.963 450.418 501.655 450.201
C 501.517 437.039 500.939 423.781 501.474 410.619 Z"
opacity="1" fill="rgb(16,78,105)" fill-rule="evenodd" />
<path d="
M 522.421 282.597
C 522.584 281.264 523.013 279.976 523.691 278.819
C 528.594 270.468 541.632 275.185 540.556 284.593
C 539.269 295.842 521.018 294.105 522.421 282.597 Z"
opacity="1" fill="rgb(11,77,104)" fill-rule="evenodd" />
<path d="
M 524.373 298.901
C 527.728 299.108 531.14 298.972 534.502 298.953
C 535.982 298.944 537.818 298.656 539.222 299.15
C 538.723 312.552 539.118 326.084 539.147 339.499
C 539.156 343.666 539.165 347.833 539.146 351.999
C 539.138 353.688 538.746 356.027 539.216 357.627
C 534.381 357.223 529.064 358.47 524.318 357.658
C 524.365 344.606 524.316 331.552 524.32 318.499
C 524.323 311.989 524.06 305.4 524.373 298.901 Z"
opacity="1" fill="rgb(11,75,102)" fill-rule="evenodd" />
<path d="
M 545.919 324.106
C 546.827 318.778 548.189 313.772 551.563 309.405
C 562.553 295.185 585.505 293.467 597.409 307.71
C 603.262 314.713 604.84 324.661 603.349 333.431
C 593.173 333.652 582.939 333.769 572.758 333.655
C 570.117 333.625 567.483 333.574 564.845 333.488
C 563.333 333.439 561.822 333.151 560.526 334.036
C 561.334 336.023 561.942 337.725 563.35 339.412
C 567.937 344.911 575.733 346.833 582.251 343.525
C 585.156 342.051 586.878 339.62 589.002 337.283
C 591.393 337.859 593.736 339.698 595.939 340.805
C 597.742 341.711 600.215 342.414 601.782 343.659
C 594.623 359.671 570.94 362.425 557.709 352.999
C 548.481 346.425 544.826 335.045 545.919 324.106 Z
M 560.914 321.563
C 560.677 322.392 560.757 321.996 560.654 322.746
C 570.164 322.082 579.826 323.111 589.358 322.714
C 589.503 321.602 588.861 320.001 588.436 318.992
C 586.729 314.934 582.314 311.662 578.004 310.988
C 570.199 309.768 563.334 314.114 560.914 321.563 Z"
opacity="1" fill="rgb(13,76,104)" fill-rule="evenodd" />
<path d="
M 603.438 298.909
C 608.745 298.857 614.169 298.544 619.467 298.859
C 620.092 301.625 621.277 304.41 622.096 307.152
C 623.79 312.826 625.478 318.506 627.132 324.192
C 627.997 327.162 628.826 330.14 629.702 333.108
C 630.06 334.317 630.096 335.755 630.711 336.864
C 631.061 336.941 631.262 334.988 631.298 334.749
C 631.652 332.42 632.698 330.025 633.359 327.756
C 636.142 318.207 638.446 308.354 641.88 299.02
C 644.771 298.924 647.657 298.932 650.549 298.919
C 651.329 298.916 653.271 298.513 653.811 299.005
C 656.131 307.122 659.028 315.17 661.738 323.168
C 663.269 327.687 664.144 332.723 665.982 337.091
C 667.605 333.478 668.205 328.884 669.249 325.017
C 671.597 316.317 673.927 307.555 676.553 298.94
C 680.342 298.161 684.866 298.825 688.735 298.826
C 690.082 298.826 692.123 298.431 693.363 299.002
C 689.938 310.494 685.418 321.661 681.894 333.128
C 680.156 338.784 678.437 344.47 676.506 350.062
C 675.669 352.485 675.143 355.212 673.993 357.506
C 672.875 357.82 671.488 357.59 670.338 357.568
C 667.956 357.521 665.568 357.524 663.186 357.528
C 661.778 357.53 659.906 357.864 658.555 357.479
C 655.725 349.39 652.978 341.27 650.337 333.115
C 649.74 331.272 649.073 329.442 648.422 327.619
C 648.269 327.193 647.846 325.734 647.769 325.723
C 647.33 325.661 647.609 326.594 647.52 327.029
C 647.427 327.488 647.307 327.954 647.166 328.401
C 646.672 329.975 646.081 331.523 645.594 333.102
C 643.123 341.116 641.299 349.472 638.357 357.324
C 637.51 358.072 635.09 357.651 634.004 357.649
C 630.246 357.645 626.491 357.586 622.743 357.491
C 620.38 352.176 618.972 346.203 617.159 340.672
C 614.115 331.385 610.822 322.177 607.683 312.922
C 606.183 308.498 605.015 303.634 603.049 299.407
C 603.179 299.241 603.309 299.075 603.438 298.909 Z"
opacity="1" fill="rgb(13,76,104)" fill-rule="evenodd" />

</svg>